PathFileType  4	(X/Y/Z) C:\Users\antoi\Documents\MyRepositories\mobilecap\ResultsAnalysis
DataRate	CameraRate	NumFrames	NumMarkers	Units	OrigDataRate	OrigDataStartFrame	OrigNumFrames
100.0	100.0	7	51	mm	100.0	1004	1338
Frame#	Time	r_knee			r_shank_antsup			r_ankle			r_calc			r_5meta			r_toe			L_knee			L_shank_antsup			L_ankle			L_calc			L_5meta			L_toe			r_sh2			r_sh3			r_sh4			L_sh2			L_sh3			r_thigh1			r_thigh2			r_thigh3			r_thigh4			r_thigh5			L_thigh1			L_thigh2			L_thigh3			L_thigh4			r.ASIS			r.PSIS			L.ASIS			L.PSIS			C7			R_Shoulder			L_Shoulder			R_Sternum			L_Sternum			R_humerus			R_elbow_med			R_elbow_lat			R_forearm			R_wrist_radius			R_wrist_ulna			L_humerus			L_elbow_med			L_elbow_lat			L_forearm			L_wrist_radius			L_wrist_ulna			R_HJC			L_HJC			R_HJC_reg			L_HJC_reg			
		X1	Y1	Z1	X2	Y2	Z2	X3	Y3	Z3	X4	Y4	Z4	X5	Y5	Z5	X6	Y6	Z6	X7	Y7	Z7	X8	Y8	Z8	X9	Y9	Z9	X10	Y10	Z10	X11	Y11	Z11	X12	Y12	Z12	X13	Y13	Z13	X14	Y14	Z14	X15	Y15	Z15	X16	Y16	Z16	X17	Y17	Z17	X18	Y18	Z18	X19	Y19	Z19	X20	Y20	Z20	X21	Y21	Z21	X22	Y22	Z22	X23	Y23	Z23	X24	Y24	Z24	X25	Y25	Z25	X26	Y26	Z26	X27	Y27	Z27	X28	Y28	Z28	X29	Y29	Z29	X30	Y30	Z30	X31	Y31	Z31	X32	Y32	Z32	X33	Y33	Z33	X34	Y34	Z34	X35	Y35	Z35	X36	Y36	Z36	X37	Y37	Z37	X38	Y38	Z38	X39	Y39	Z39	X40	Y40	Z40	X41	Y41	Z41	X42	Y42	Z42	X43	Y43	Z43	X44	Y44	Z44	X45	Y45	Z45	X46	Y46	Z46	X47	Y47	Z47	X48	Y48	Z48	X49	Y49	Z49	X50	Y50	Z50	X51	Y51	Z51	

1004	10.03000000	-134.47156	474.18829	-385.67212	-107.05714	373.17301	-389.45495	-275.77712	90.65753	-391.66804	-335.84008	56.28777	-443.02197	-162.42089	44.42535	-342.99398	-126.55412	76.04708	-393.49845	-144.10994	495.37228	-786.00898	-107.00541	402.60972	-787.31181	-259.15537	100.57509	-796.04911	-327.28821	57.91961	-740.45471	-162.48779	39.36679	-846.26043	-108.56925	64.77680	-797.32805	-148.72019	266.97755	-389.88921	-168.10834	395.20332	-350.79852	-215.59666	290.99268	-346.27755	-184.24115	441.27729	-816.29390	-223.84618	327.04239	-830.02936	-213.10165	743.91938	-369.64244	-156.21083	650.36044	-380.99665	-190.47497	598.41966	-352.23623	-308.73995	683.51905	-360.16516	-243.31234	587.55763	-369.65471	-196.96119	741.13188	-756.26819	-118.70576	625.21782	-761.91698	-286.76803	686.80330	-787.48736	-212.67288	575.01234	-785.21343	-205.82094	871.46143	-437.39468	-393.20583	967.66667	-508.95241	-216.16580	875.40027	-685.01516	-392.36420	969.05451	-605.80395	-223.09642	1382.75755	-534.24025	-125.64202	1339.05571	-380.48447	-140.08571	1351.72659	-680.40500	-107.05114	1291.61920	-516.05251	-110.00053	1295.19261	-560.66584	-56.17026	1238.17730	-320.30543	-42.64269	1023.12737	-310.38734	-45.46911	1048.42917	-248.99966	31.86209	1026.84516	-212.45551	161.88762	918.89933	-203.40130	131.36493	904.14538	-167.44958	-64.91688	1277.79843	-762.78830	2.74841	1083.52408	-799.28649	-1.62482	1128.31667	-864.62167	72.57033	1128.49958	-889.66421	222.72094	1034.19322	-925.03587	187.48521	1029.40340	-964.07515	-313.45413	815.34300	-458.30752	-317.32848	818.06261	-647.81100	-303.02659	822.80582	-473.62145	-301.60506	825.14915	-637.19096	
1005	10.04000000	-134.97450	474.99389	-385.92360	-107.93030	373.78500	-389.66443	-275.62136	90.62734	-391.57558	-335.75685	56.42103	-442.97164	-162.39432	43.58033	-344.01537	-126.40188	75.52597	-393.41464	-144.13283	496.32174	-785.30693	-107.66965	403.42645	-786.60287	-258.90346	100.94247	-795.97428	-327.17285	58.26051	-740.25675	-162.46108	39.44388	-846.32719	-108.39954	64.76629	-797.43703	-149.12517	267.47212	-389.85452	-169.10688	395.66499	-350.76097	-216.27543	291.53806	-346.41907	-185.01946	442.01771	-815.24138	-224.39780	327.64084	-829.21371	-207.88698	746.26776	-370.03074	-152.94155	651.81624	-381.37853	-188.44335	600.43501	-352.22007	-304.88051	687.95210	-360.02962	-241.55543	590.70354	-369.58930	-192.44446	743.10581	-755.41783	-116.51926	625.58756	-761.32447	-283.11425	690.34558	-786.16413	-211.44463	577.04478	-784.17334	-200.27324	877.65315	-436.76953	-389.23233	971.71416	-508.36890	-210.80425	881.94442	-684.22115	-388.35722	972.97462	-604.84956	-226.73064	1390.02270	-533.70098	-129.96291	1347.04342	-379.46155	-143.82315	1360.39849	-680.35288	-109.55302	1300.58600	-515.42548	-112.26231	1304.19027	-560.08690	-61.67626	1244.51947	-318.98950	-50.46851	1029.42277	-312.64368	-54.35173	1053.65021	-250.65725	21.77019	1029.89191	-212.89590	149.29208	918.99178	-202.61389	117.58481	904.60463	-167.42762	-69.05692	1284.71632	-763.28360	-4.16180	1089.24724	-798.36504	-8.71450	1133.27976	-864.24735	64.92485	1131.55243	-890.58314	211.83682	1032.55723	-927.45217	175.70484	1028.83889	-966.23976	-307.29614	820.23224	-457.71382	-311.21243	823.15975	-647.21347	-297.02974	828.25143	-472.94018	-295.54686	830.38592	-636.41014	
1006	10.05000000	-135.56243	476.00778	-386.10010	-108.89847	374.47385	-389.90101	-275.47997	90.70075	-391.44759	-335.65299	56.57770	-442.98619	-162.32090	42.92283	-344.83796	-126.28584	75.13356	-393.38270	-144.15449	497.26718	-784.44978	-108.31009	404.30901	-785.94207	-258.65521	101.31257	-795.78813	-326.97128	58.71386	-740.04185	-162.42268	39.60663	-846.52431	-108.23285	64.64403	-797.47982	-149.55877	267.93318	-389.90978	-170.17975	396.19407	-350.71027	-216.81966	291.99960	-346.35514	-185.81387	442.83073	-814.22326	-225.00087	328.42372	-828.41999	-202.82897	748.50236	-370.18895	-149.86526	653.04024	-381.50326	-186.47570	602.31134	-352.08358	-300.98221	692.34654	-359.99449	-239.83874	593.98546	-369.20304	-187.77501	745.06211	-754.60838	-114.30600	625.81320	-760.42187	-279.49172	694.11541	-785.09670	-210.18301	579.30560	-783.17330	-194.70657	883.88773	-436.18059	-385.12878	975.50301	-507.65332	-205.52162	888.71741	-684.02034	-384.24339	976.76303	-604.01232	-230.34195	1396.98720	-533.25469	-134.36539	1354.64768	-378.53554	-147.57075	1368.69335	-680.40482	-112.05853	1309.24896	-514.75523	-114.53841	1312.87539	-559.42359	-67.22918	1250.59386	-317.58587	-58.49694	1035.48095	-314.72978	-63.16605	1058.81473	-252.21265	11.65381	1032.83520	-213.40671	136.63198	919.04504	-202.20341	103.80009	904.87659	-167.78040	-73.33517	1291.26270	-763.63863	-11.30809	1094.55178	-797.31005	-15.90829	1137.92630	-863.63450	57.18130	1134.25565	-891.20742	200.73067	1030.71651	-929.44300	163.89994	1028.00380	-967.95859	-300.89665	824.99791	-457.38176	-305.00680	828.32962	-646.87005	-290.97459	833.42360	-472.43344	-289.47011	835.56493	-636.17408	
1007	10.06000000	-136.27246	477.11984	-386.35481	-109.98099	375.27745	-390.07099	-275.38130	90.76581	-391.33857	-335.57690	56.68422	-443.01817	-162.25889	42.74240	-344.94508	-126.16166	74.83812	-393.46361	-144.29269	498.13926	-783.37329	-108.96699	405.33629	-785.38414	-258.38089	101.69835	-795.62699	-326.73081	59.21920	-739.85896	-162.36621	39.84848	-846.84088	-108.08872	64.52280	-797.48782	-150.13524	268.51977	-389.98412	-171.26645	396.67914	-350.92810	-217.46377	292.21191	-346.32130	-186.64585	443.70784	-813.22373	-225.57312	329.26073	-827.54489	-197.91116	750.87637	-370.14201	-146.88659	654.16064	-381.53949	-184.54441	604.32043	-351.68229	-297.15139	696.72849	-359.83270	-238.11066	597.27256	-368.79504	-182.92773	746.94825	-753.82053	-112.12090	626.16302	-759.51947	-275.81461	698.02380	-784.30694	-208.84137	581.76266	-782.31975	-189.13344	890.15812	-435.60130	-380.86283	978.93569	-507.11525	-200.23386	895.62888	-684.39728	-380.01951	980.50879	-603.60516	-233.87845	1403.54746	-532.96140	-138.83517	1361.87449	-377.46614	-151.24611	1376.53063	-680.54411	-114.53182	1317.56026	-514.12379	-116.91184	1321.21810	-558.79649	-72.80429	1256.41918	-316.11098	-66.70437	1041.12527	-316.38070	-71.83404	1063.77730	-253.70172	1.60036	1035.68737	-214.01691	123.94629	919.07386	-202.07460	90.10996	904.96324	-168.68458	-77.72300	1297.36820	-763.86621	-18.98090	1099.14257	-796.71211	-23.15409	1142.22590	-862.95384	49.32771	1136.66840	-891.70433	189.50948	1028.80024	-931.26097	152.05169	1026.97841	-969.23503	-294.33729	829.64997	-457.42728	-298.61060	833.51684	-646.90190	-284.75460	838.02574	-472.16553	-283.31815	840.70675	-636.54463	
1008	10.07000000	-137.01930	477.98186	-386.70252	-111.14671	376.09075	-390.21818	-275.34552	90.74372	-391.25359	-335.54608	56.72600	-443.00994	-162.23397	42.74406	-344.79190	-126.02525	74.62937	-393.58185	-144.54401	499.02630	-782.31084	-109.68671	406.45292	-784.84550	-258.11053	102.08687	-795.55383	-326.50046	59.75429	-739.79632	-162.29668	40.03343	-847.08671	-107.97630	64.46147	-797.53153	-150.87490	269.23534	-390.05465	-172.39367	397.17901	-351.15730	-218.05448	292.42267	-346.60631	-187.57561	444.60261	-812.26032	-226.20036	330.02551	-826.64863	-193.00699	753.28391	-370.20282	-143.93721	655.32116	-381.75648	-182.56001	606.29458	-351.52732	-293.30668	701.06163	-359.48257	-236.36485	600.47389	-368.53436	-178.14251	748.85152	-753.03951	-109.95796	626.61210	-758.59968	-271.98053	701.85006	-783.51877	-207.46893	584.27101	-781.67535	-183.58014	896.35560	-434.98751	-376.49320	982.12561	-506.73994	-194.82133	902.24877	-684.10388	-375.74142	984.14593	-603.27618	-237.34013	1409.71057	-532.71983	-143.31254	1368.70760	-376.31710	-154.84241	1383.83701	-680.67081	-116.95861	1325.53176	-513.50611	-119.30196	1329.17769	-558.36328	-78.34566	1261.89806	-314.76983	-75.09532	1046.38406	-317.77879	-80.44322	1068.45619	-255.07021	-8.35533	1038.40809	-214.78236	111.32753	919.06831	-202.20935	76.59770	905.03955	-169.92835	-82.11676	1302.92582	-763.96528	-26.61214	1103.39593	-795.95418	-30.40876	1146.05773	-862.28113	41.38787	1138.76698	-892.08942	178.24575	1026.81316	-932.83853	140.13417	1025.86838	-970.20258	-287.83519	834.24055	-457.26666	-292.04539	838.46750	-646.73529	-278.29002	842.43728	-471.79480	-277.00778	845.88126	-636.38273	
1009	10.08000000	-137.85130	478.54683	-386.88286	-112.42116	376.91870	-390.37255	-275.37480	90.68593	-391.18995	-335.53559	56.74580	-442.98181	-162.19723	42.66962	-344.77309	-125.94344	74.51896	-393.63922	-144.85700	499.97971	-781.34590	-110.49992	407.49303	-784.14032	-257.90551	102.42840	-795.46391	-326.25818	60.35335	-739.78393	-162.22218	40.11590	-847.17650	-107.86732	64.42438	-797.58560	-151.69155	269.95281	-390.10817	-173.70353	397.81586	-351.13640	-218.99742	292.67983	-346.79072	-188.61610	445.49547	-811.33116	-226.92922	330.78223	-825.89459	-188.07733	755.51551	-370.41549	-141.08887	656.41499	-382.08292	-180.47864	607.97393	-351.99109	-289.35985	705.35771	-359.11582	-234.65769	603.67674	-368.20349	-173.41784	750.71788	-752.35049	-107.77975	626.95546	-757.63306	-268.04411	705.56770	-782.63475	-206.10143	586.70579	-781.05059	-178.05844	902.44380	-434.33839	-372.14552	985.26835	-506.23279	-189.25697	908.64671	-683.34420	-371.48170	987.51449	-602.71805	-240.72674	1415.56320	-532.43050	-147.68972	1375.08791	-375.28713	-158.39521	1390.69970	-680.75002	-119.36774	1333.10168	-512.91913	-121.52689	1336.76635	-558.03011	-83.84690	1266.91408	-313.69001	-83.60798	1051.36019	-319.30995	-89.11757	1072.85651	-256.42637	-18.32754	1040.96460	-215.60221	98.81372	919.02185	-202.56842	63.26716	905.21790	-171.30282	-86.44529	1307.92495	-764.11776	-33.72205	1107.49777	-794.43645	-37.68787	1149.36012	-861.49227	33.42019	1140.41282	-892.22292	166.96599	1024.74502	-933.99080	128.23441	1024.60381	-970.91905	-281.32700	838.75261	-456.83592	-285.41400	843.23642	-646.30085	-271.76641	847.11754	-471.19804	-270.63374	850.94676	-635.71121	
1010	10.09000000	-138.91889	479.26683	-386.93381	-113.87465	377.80598	-390.51330	-275.41607	90.65503	-391.15675	-335.52216	56.77148	-442.96559	-162.10507	42.65656	-344.60293	-125.89602	74.41055	-393.69741	-145.21422	501.00460	-780.48632	-111.42042	408.41937	-783.28621	-257.70689	102.78354	-795.32490	-325.99397	60.96459	-739.64436	-162.15799	40.16075	-847.16071	-107.72567	64.38377	-797.62456	-152.54869	270.63315	-390.19820	-175.26079	398.51018	-351.10159	-220.35744	292.89124	-346.59597	-189.71014	446.42625	-810.38478	-227.68302	331.57074	-825.20680	-183.13973	757.57653	-370.71620	-138.38257	657.40130	-382.43476	-178.49698	609.64631	-352.55037	-285.42229	709.66560	-358.74123	-232.94024	606.73814	-368.03239	-168.49083	752.32987	-751.70589	-105.58345	627.20341	-756.78768	-264.09717	709.28279	-781.83592	-204.69046	589.01193	-780.27162	-172.59283	908.42345	-433.72994	-367.83802	988.34812	-505.62742	-183.70824	915.08964	-683.31496	-367.29948	990.56882	-602.05568	-244.00318	1421.11874	-532.15552	-152.00161	1381.10219	-374.42947	-161.69537	1397.13800	-680.94488	-121.69380	1340.19293	-512.41562	-123.53858	1343.96615	-557.63320	-89.32374	1271.48951	-312.75405	-92.17908	1056.04339	-320.92965	-97.86143	1076.93168	-257.88165	-28.38872	1043.27188	-216.44610	86.38919	918.95090	-203.07198	50.14321	905.38413	-172.80766	-90.67868	1312.46784	-764.51947	-40.60570	1111.18608	-792.67297	-45.00716	1152.21947	-860.55630	25.47085	1141.59544	-892.08781	155.68783	1022.53292	-934.77772	116.44399	1023.08705	-971.33269	-274.67929	843.10558	-456.62326	-278.84659	847.98306	-646.07651	-265.36507	851.90640	-470.58722	-264.44427	855.70390	-635.48947	
